<svg width="544" height="34" viewBox="0 0 544 34" fill="none" xmlns="http://www.w3.org/2000/svg">
<path d="M407.855 17.5931C360.788 15.5376 152.632 24.3717 109.153 33.5556C109.153 33.993 109.643 34.0191 110.24 33.993C115.24 33.7743 201.044 27.1455 263.178 24.8965C283.31 24.1678 305.286 23.617 326.005 22.5786C346.725 21.5403 407.855 17.5931 407.855 17.5931Z" fill="#FF9B00
"/>
<path d="M543.835 4.5168C543.835 4.5168 544.27 4.6043 543.727 5.04163C543.435 5.10026 542.314 5.39146 539.487 5.91626C535.357 6.96585 370.73 4.61212 275.569 8.62771L1.32506 19.0363C-1.21073 19.1218 0.672873 18.2928 0.672873 18.2928C35.8801 13.8123 71.9786 9.0651 167.741 5.78518C233.395 2.72527 355.582 -0.215504 380.572 0.0124442C417.855 0.0124442 497.253 2.13985 543.835 4.5168Z" fill="#FF9B00
"/>
</svg>